<?xml version="1.0" standalone="no"?><!DOCTYPE svg PUBLIC "-//W3C//DTD SVG 1.1//EN" "http://www.w3.org/Graphics/SVG/1.1/DTD/svg11.dtd"><svg xmlns="http://www.w3.org/2000/svg" viewBox="0 0 650 400" version="1.1"><clipPath id="box"><rect x="0" y="0" width="650" height="400" style="fill:none;stroke:none;" /></clipPath><g clip-path="url(#box)"><rect x="0.00" y="0.00" width="650.00" height="400.00" style="fill:#FFFFFF;stroke:none;" /><path d="M0.00 0.00 L0.00 400.00 " style="fill:none;stroke:#000000;stroke-width:1;" /><path d="M0.00 400.00 L650.00 400.00 " style="fill:none;stroke:#000000;stroke-width:1;" /><text x="8.125" y="335.83333333333337" text-anchor="start" style="font:10px Droid Sans,Trebuchet MS,Arial,Helvetica,sans-serif;stroke:none;fill:#000000">20</text><text x="8.125" y="269.16666666666663" text-anchor="start" style="font:10px Droid Sans,Trebuchet MS,Arial,Helvetica,sans-serif;stroke:none;fill:#000000">40</text><text x="8.125" y="202.5" text-anchor="start" style="font:10px Droid Sans,Trebuchet MS,Arial,Helvetica,sans-serif;stroke:none;fill:#000000">60</text><text x="8.125" y="135.83333333333331" text-anchor="start" style="font:10px Droid Sans,Trebuchet MS,Arial,Helvetica,sans-serif;stroke:none;fill:#000000">80</text><text x="8.125" y="69.16666666666666" text-anchor="start" style="font:10px Droid Sans,Trebuchet MS,Arial,Helvetica,sans-serif;stroke:none;fill:#000000">100</text><text x="34.21052631578947" y="389.625" text-anchor="middle" style="font:10px Droid Sans,Trebuchet MS,Arial,Helvetica,sans-serif;stroke:none;fill:#000000">2</text><text x="102.63157894736841" y="389.625" text-anchor="middle" style="font:10px Droid Sans,Trebuchet MS,Arial,Helvetica,sans-serif;stroke:none;fill:#000000">4</text><text x="171.05263157894737" y="389.625" text-anchor="middle" style="font:10px Droid Sans,Trebuchet MS,Arial,Helvetica,sans-serif;stroke:none;fill:#000000">6</text><text x="239.4736842105263" y="389.625" text-anchor="middle" style="font:10px Droid Sans,Trebuchet MS,Arial,Helvetica,sans-serif;stroke:none;fill:#000000">8</text><text x="307.89473684210526" y="389.625" text-anchor="middle" style="font:10px Droid Sans,Trebuchet MS,Arial,Helvetica,sans-serif;stroke:none;fill:#000000">10</text><text x="376.3157894736842" y="389.625" text-anchor="middle" style="font:10px Droid Sans,Trebuchet MS,Arial,Helvetica,sans-serif;stroke:none;fill:#000000">12</text><text x="444.7368421052632" y="389.625" text-anchor="middle" style="font:10px Droid Sans,Trebuchet MS,Arial,Helvetica,sans-serif;stroke:none;fill:#000000">14</text><text x="513.1578947368421" y="389.625" text-anchor="middle" style="font:10px Droid Sans,Trebuchet MS,Arial,Helvetica,sans-serif;stroke:none;fill:#000000">16</text><text x="581.578947368421" y="389.625" text-anchor="middle" style="font:10px Droid Sans,Trebuchet MS,Arial,Helvetica,sans-serif;stroke:none;fill:#000000">18</text><path d="M-10.00 200.00 L-0.25 64.22 L0.75 73.82 L0.85 74.79 L0.96 75.78 L1.07 76.78 L1.18 77.77 L1.29 78.76 L1.40 79.76 L1.51 80.75 L1.62 81.75 L1.73 82.74 L1.85 83.73 L1.96 84.73 L2.07 85.72 L2.19 86.71 L2.30 87.71 L2.42 88.70 L2.54 89.70 L2.66 90.69 L2.78 91.68 L2.90 92.68 L3.02 93.67 L3.14 94.66 L3.26 95.66 L3.38 96.65 L3.50 97.64 L3.63 98.64 L3.75 99.63 L3.88 100.62 L4.01 101.62 L4.13 102.61 L4.26 103.60 L4.39 104.60 L4.52 105.59 L4.65 106.58 L4.79 107.58 L4.92 108.57 L5.05 109.56 L5.19 110.56 L5.32 111.55 L5.46 112.54 L5.60 113.54 L5.74 114.53 L5.88 115.52 L6.02 116.52 L6.16 117.51 L6.30 118.50 L6.44 119.49 L6.59 120.49 L6.73 121.48 L6.88 122.47 L7.03 123.47 L7.18 124.46 L7.32 125.45 L7.48 126.44 L7.63 127.44 L7.78 128.43 L7.93 129.42 L8.09 130.42 L8.25 131.41 L8.40 132.40 L8.56 133.39 L8.72 134.39 L8.88 135.38 L9.05 136.37 L9.21 137.36 L9.37 138.36 L9.54 139.35 L9.71 140.34 L9.88 141.33 L10.04 142.33 L10.22 143.32 L10.39 144.31 L10.56 145.30 L10.74 146.29 L10.91 147.29 L11.09 148.28 L11.27 149.27 L11.45 150.26 L11.63 151.26 L11.82 152.25 L12.00 153.24 L12.19 154.23 L12.38 155.22 L12.57 156.22 L12.76 157.21 L12.95 158.20 L13.14 159.19 L13.34 160.18 L13.54 161.17 L13.74 162.17 L13.94 163.16 L14.14 164.15 L14.34 165.14 L14.55 166.13 L14.76 167.12 L14.97 168.12 L15.18 169.11 L15.39 170.10 L15.61 171.09 L15.82 172.08 L16.04 173.07 L16.26 174.06 L16.48 175.06 L16.71 176.05 L16.93 177.04 L17.16 178.03 L17.39 179.02 L17.63 180.01 L17.86 181.00 L18.10 181.99 L18.34 182.98 L18.58 183.97 L18.82 184.97 L19.07 185.96 L19.31 186.95 L19.56 187.94 L19.82 188.93 L20.07 189.92 L20.33 190.91 L20.59 191.90 L20.85 192.89 L21.11 193.88 L21.38 194.87 L21.65 195.86 L21.92 196.85 L22.20 197.84 L22.48 198.83 L22.76 199.82 L23.04 200.81 L23.33 201.80 L23.61 202.79 L23.91 203.78 L24.20 204.77 L24.50 205.76 L24.80 206.75 L25.10 207.74 L25.41 208.73 L25.72 209.72 L26.03 210.71 L26.35 211.70 L26.67 212.69 L26.99 213.68 L27.32 214.67 L27.65 215.66 L27.98 216.65 L28.32 217.64 L28.66 218.63 L29.01 219.62 L29.36 220.61 L29.71 221.60 L30.07 222.58 L30.43 223.57 L30.79 224.56 L31.16 225.55 L31.53 226.54 L31.91 227.53 L32.29 228.52 L32.67 229.51 L33.06 230.49 L33.46 231.48 L33.86 232.47 L34.26 233.46 L34.67 234.45 L35.08 235.44 L35.50 236.42 L35.93 237.41 L36.36 238.40 L36.79 239.39 L37.23 240.37 L37.67 241.36 L38.12 242.35 L38.58 243.34 L39.04 244.32 L39.51 245.31 L39.98 246.30 L40.46 247.29 L40.95 248.27 L41.44 249.26 L41.94 250.25 L42.44 251.24 L42.96 252.22 L43.47 253.21 L44.00 254.20 L44.53 255.18 L45.07 256.17 L45.62 257.15 L46.18 258.14 L46.74 259.13 L47.31 260.11 L47.89 261.10 L48.47 262.09 L49.07 263.07 L49.67 264.06 L50.29 265.04 L50.91 266.03 L51.54 267.01 L52.18 268.00 L52.83 268.98 L53.49 269.97 L54.16 270.95 L54.84 271.94 L55.53 272.92 L56.23 273.91 L56.94 274.89 L57.66 275.88 L58.40 276.86 L59.14 277.85 L59.90 278.83 L60.67 279.81 L61.45 280.80 L62.25 281.78 L63.06 282.76 L63.88 283.75 L64.72 284.73 L65.57 285.71 L66.44 286.70 L67.32 287.68 L68.21 288.66 L69.12 289.64 L70.05 290.63 L71.00 291.61 L71.96 292.59 L72.94 293.57 L73.94 294.55 L74.95 295.54 L75.99 296.52 L77.04 297.50 L78.12 298.48 L79.21 299.46 L80.33 300.44 L81.47 301.42 L82.63 302.40 L83.82 303.38 L85.03 304.36 L86.26 305.34 L87.52 306.32 L88.81 307.30 L90.12 308.28 L91.46 309.26 L92.83 310.24 L94.23 311.22 L95.66 312.19 L97.12 313.17 L98.62 314.15 L100.15 315.13 L101.71 316.10 L103.32 317.08 L104.96 318.06 L106.63 319.03 L108.35 320.01 L110.11 320.99 L111.92 321.96 L113.77 322.94 L115.66 323.91 L117.61 324.89 L119.60 325.86 L121.60 326.81 L123.60 327.74 L125.60 328.65 L127.60 329.53 L129.60 330.39 L131.60 331.23 L133.60 332.05 L135.60 332.85 L137.60 333.63 L139.60 334.39 L141.60 335.14 L143.60 335.87 L145.60 336.58 L147.60 337.28 L149.60 337.96 L151.60 338.63 L153.60 339.28 L155.60 339.92 L157.60 340.55 L159.60 341.16 L161.60 341.76 L163.60 342.35 L165.60 342.93 L167.60 343.49 L169.60 344.05 L171.60 344.59 L173.60 345.13 L175.60 345.65 L177.60 346.16 L179.60 346.67 L181.60 347.16 L183.60 347.65 L185.60 348.12 L187.60 348.59 L189.60 349.05 L191.60 349.50 L193.60 349.94 L195.60 350.38 L197.60 350.81 L199.60 351.23 L201.60 351.64 L203.60 352.05 L205.60 352.45 L207.60 352.84 L209.60 353.23 L211.60 353.61 L213.60 353.98 L215.60 354.35 L217.60 354.71 L219.60 355.07 L221.60 355.42 L223.60 355.77 L225.60 356.11 L227.60 356.44 L229.60 356.77 L231.60 357.10 L233.60 357.42 L235.60 357.74 L237.60 358.05 L239.60 358.35 L241.60 358.66 L243.60 358.95 L245.60 359.25 L247.60 359.54 L249.60 359.82 L251.60 360.10 L253.60 360.38 L255.60 360.65 L257.60 360.92 L259.60 361.19 L261.60 361.45 L263.60 361.71 L265.60 361.96 L267.60 362.22 L269.60 362.47 L271.60 362.71 L273.60 362.95 L275.60 363.19 L277.60 363.43 L279.60 363.66 L281.60 363.89 L283.60 364.12 L285.60 364.34 L287.60 364.56 L289.60 364.78 L291.60 365.00 L293.60 365.21 L295.60 365.42 L297.60 365.63 L299.60 365.84 L301.60 366.04 L303.60 366.24 L305.60 366.44 L307.60 366.64 L309.60 366.83 L311.60 367.02 L313.60 367.21 L315.60 367.40 L317.60 367.59 L319.60 367.77 L321.60 367.95 L323.60 368.13 L325.60 368.31 L327.60 368.48 L329.60 368.66 L331.60 368.83 L333.60 369.00 L335.60 369.16 L337.60 369.33 L339.60 369.49 L341.60 369.66 L343.60 369.82 L345.60 369.98 L347.60 370.13 L349.60 370.29 L351.60 370.44 L353.60 370.60 L355.60 370.75 L357.60 370.90 L359.60 371.04 L361.60 371.19 L363.60 371.33 L365.60 371.48 L367.60 371.62 L369.60 371.76 L371.60 371.90 L373.60 372.04 L375.60 372.17 L377.60 372.31 L379.60 372.44 L381.60 372.58 L383.60 372.71 L385.60 372.84 L387.60 372.97 L389.60 373.09 L391.60 373.22 L393.60 373.34 L395.60 373.47 L397.60 373.59 L399.60 373.71 L401.60 373.83 L403.60 373.95 L405.60 374.07 L407.60 374.19 L409.60 374.31 L411.60 374.42 L413.60 374.54 L415.60 374.65 L417.60 374.76 L419.60 374.87 L421.60 374.98 L423.60 375.09 L425.60 375.20 L427.60 375.31 L429.60 375.41 L431.60 375.52 L433.60 375.62 L435.60 375.73 L437.60 375.83 L439.60 375.93 L441.60 376.03 L443.60 376.13 L445.60 376.23 L447.60 376.33 L449.60 376.43 L451.60 376.53 L453.60 376.62 L455.60 376.72 L457.60 376.81 L459.60 376.91 L461.60 377.00 L463.60 377.09 L465.60 377.18 L467.60 377.28 L469.60 377.37 L471.60 377.46 L473.60 377.54 L475.60 377.63 L477.60 377.72 L479.60 377.81 L481.60 377.89 L483.60 377.98 L485.60 378.06 L487.60 378.15 L489.60 378.23 L491.60 378.31 L493.60 378.39 L495.60 378.48 L497.60 378.56 L499.60 378.64 L501.60 378.72 L503.60 378.80 L505.60 378.88 L507.60 378.95 L509.60 379.03 L511.60 379.11 L513.60 379.18 L515.60 379.26 L517.60 379.33 L519.60 379.41 L521.60 379.48 L523.60 379.56 L525.60 379.63 L527.60 379.70 L529.60 379.77 L531.60 379.85 L533.60 379.92 L535.60 379.99 L537.60 380.06 L539.60 380.13 L541.60 380.20 L543.60 380.26 L545.60 380.33 L547.60 380.40 L549.60 380.47 L551.60 380.53 L553.60 380.60 L555.60 380.67 L557.60 380.73 L559.60 380.80 L561.60 380.86 L563.60 380.92 L565.60 380.99 L567.60 381.05 L569.60 381.11 L571.60 381.18 L573.60 381.24 L575.60 381.30 L577.60 381.36 L579.60 381.42 L581.60 381.48 L583.60 381.54 L585.60 381.60 L587.60 381.66 L589.60 381.72 L591.60 381.78 L593.60 381.84 L595.60 381.89 L597.60 381.95 L599.60 382.01 L601.60 382.06 L603.60 382.12 L605.60 382.18 L607.60 382.23 L609.60 382.29 L611.60 382.34 L613.60 382.40 L615.60 382.45 L617.60 382.50 L619.60 382.56 L621.60 382.61 L623.60 382.66 L625.60 382.72 L627.60 382.77 L629.60 382.82 L631.60 382.87 L633.60 382.92 L635.60 382.98 L637.60 383.03 L639.60 383.08 L641.60 383.13 L643.60 383.18 L645.60 383.23 L647.60 383.27 L649.60 383.32 " style="fill:none;stroke:#000000;stroke-width:1;" /><rect x="32.21" y="231.33" width="5.00" height="5.00" style="fill:#39BF42;stroke:none;" /><rect x="66.42" y="287.00" width="5.00" height="5.00" style="fill:#39BF42;stroke:none;" /><rect x="100.63" y="314.67" width="5.00" height="5.00" style="fill:#39BF42;stroke:none;" /><rect x="134.84" y="331.33" width="5.00" height="5.00" style="fill:#39BF42;stroke:none;" /><rect x="169.05" y="342.44" width="5.00" height="5.00" style="fill:#39BF42;stroke:none;" /><rect x="203.26" y="350.38" width="5.00" height="5.00" style="fill:#39BF42;stroke:none;" /><rect x="237.47" y="356.33" width="5.00" height="5.00" style="fill:#39BF42;stroke:none;" /><rect x="271.68" y="360.96" width="5.00" height="5.00" style="fill:#39BF42;stroke:none;" /><rect x="305.89" y="364.67" width="5.00" height="5.00" style="fill:#39BF42;stroke:none;" /><rect x="-2.00" y="64.67" width="5.00" height="5.00" style="fill:#FF0000;stroke:none;" /></g></svg>